<svg class="svg-icon" style="width: 32px; height: 32px;vertical-align: middle;fill: currentColor;overflow: hidden;" viewBox="0 0 1024 1024" version="1.1" xmlns="http://www.w3.org/2000/svg"><path d="M853.333333 955.733333a17.015467 17.015467 0 0 1-12.066133-5.000533L512 621.4656l-68.266667 68.266667V853.333333c0 4.539733-1.792 8.874667-5.000533 12.066134l-85.333333 85.333333a17.0496 17.0496 0 0 1-24.132267 0L248.9344 870.4h-71.202133l-80.3328 80.3328a17.0496 17.0496 0 1 1-24.132267-24.132267L153.6 846.267733v-71.202133l-80.3328-80.3328a17.0496 17.0496 0 0 1 0-24.132267l85.333333-85.333333A17.015467 17.015467 0 0 1 170.666667 580.266667h163.601066l68.266667-68.266667L73.2672 182.7328a17.0496 17.0496 0 0 1 0-24.132267l85.333333-85.333333a17.083733 17.083733 0 0 1 20.855467-2.56l415.232 249.1392L841.2672 73.2672A16.9984 16.9984 0 0 1 853.333333 68.266667h85.333334a17.066667 17.066667 0 0 1 17.066666 17.066666v85.333334c0 4.522667-1.792 8.874667-5.000533 12.066133L704.1536 429.312l249.156267 415.249067c4.027733 6.724267 2.9696 15.3088-2.56 20.855466l-85.333334 85.333334A17.134933 17.134933 0 0 1 853.333333 955.733333zM536.132267 597.333333L853.333333 914.5344l63.8464-63.8464-237.892266-396.4928L536.132267 597.333333z m-256 256L341.333333 914.5344l68.266667-68.266667v-122.402133L280.132267 853.333333z m-68.266667-17.066666h37.0688L921.6 163.601067V102.4h-61.201067L187.733333 775.0656v37.0688l56.200534-56.200533a17.0496 17.0496 0 1 1 24.132266 24.132266L211.8656 836.266667z m-102.4-153.6L170.666667 743.867733 300.1344 614.4h-122.402133l-68.266667 68.266667z m0-512L426.666667 487.867733l143.1552-143.138133-396.509867-237.909333L109.4656 170.666667z"  /><path d="M827.733333 657.066667a34.133333 34.133333 0 0 1-24.132266-58.2656l25.6-25.6a34.133333 34.133333 0 1 1 48.264533 48.264533l-25.6 25.6a33.9968 33.9968 0 0 1-24.132267 10.001067z m-64-106.666667a34.133333 34.133333 0 0 1-24.132266-58.2656l4.266666-4.266667a34.133333 34.133333 0 1 1 48.264534 48.264534l-4.266667 4.266666a33.9968 33.9968 0 0 1-24.132267 10.001067zM505.173333 296.96a34.133333 34.133333 0 0 1-24.132266-58.2656l6.826666-6.826667a34.133333 34.133333 0 1 1 48.264534 48.264534l-6.8096 6.826666a34.030933 34.030933 0 0 1-24.149334 10.001067z m-91.306666-79.36a34.133333 34.133333 0 0 1-24.132267-58.2656l12.8-12.8a34.133333 34.133333 0 1 1 48.264533 48.264533l-12.8 12.8a33.962667 33.962667 0 0 1-24.132266 10.001067z"  /><path d="M834.798933 664.132267l-48.264533-48.264534 17.066667-17.066666 48.264533 48.264533-17.066667 17.066667z m-64-106.666667l-48.264533-48.264533 17.066667-17.066667 48.264533 48.264533-17.066667 17.066667z m-256-256l-48.264533-48.264533 14.506667-14.506667 48.2816 48.264533-14.523734 14.506667z m-106.666666-64l-48.264534-48.264533 29.866667-29.866667 48.264533 48.264533-29.866666 29.866667z"  /></svg>