<?xml version="1.0" standalone="no"?>
<!DOCTYPE svg PUBLIC "-//W3C//DTD SVG 20010904//EN"
 "http://www.w3.org/TR/2001/REC-SVG-20010904/DTD/svg10.dtd">
<svg version="1.0" xmlns="http://www.w3.org/2000/svg"
 width="512.000000pt" height="512.000000pt" viewBox="0 0 512.000000 512.000000"
 preserveAspectRatio="xMidYMid meet">
<metadata>
Created by potrace 1.14, written by Peter Selinger 2001-2017
</metadata>
<g transform="translate(0.000000,512.000000) scale(0.100000,-0.100000)"
fill="#000000" stroke="none">
<path d="M2489 5006 c-2 -2 -60 -7 -129 -10 -180 -11 -210 -14 -315 -33 -16
-3 -40 -7 -52 -8 -11 -2 -29 -6 -40 -9 -10 -3 -31 -8 -48 -11 -24 -4 -142 -33
-200 -49 -47 -13 -156 -50 -231 -79 -421 -163 -751 -437 -839 -697 -20 -59
-21 -62 -31 -130 -26 -184 29 -399 125 -487 28 -26 138 -83 160 -83 20 0 158
-93 163 -110 2 -8 4 -97 3 -197 -1 -146 -4 -186 -16 -200 -33 -40 -60 -136
-53 -189 15 -109 33 -151 86 -201 38 -36 106 -73 151 -82 29 -6 32 -11 44 -66
7 -33 14 -69 17 -80 12 -55 68 -210 101 -276 33 -67 91 -166 105 -179 3 -3 23
-27 45 -54 99 -124 235 -229 375 -293 41 -18 82 -37 91 -42 13 -8 88 -32 109
-35 22 -4 31 -23 29 -65 l-2 -48 -96 -11 c-92 -11 -127 -17 -181 -27 -14 -3
-38 -8 -55 -11 -67 -11 -205 -46 -291 -73 -441 -140 -697 -367 -751 -667 -3
-21 -7 -142 -7 -269 l-1 -230 1745 0 c1541 0 1745 2 1742 15 -2 8 -3 55 -2
105 1 49 1 97 1 105 -1 13 0 107 1 135 1 6 -2 46 -6 89 -7 78 -34 165 -72 237
-55 101 -184 230 -298 298 -23 14 -43 27 -46 30 -11 13 -182 92 -271 125 -129
48 -338 101 -476 122 -21 3 -49 7 -63 9 -14 3 -50 7 -80 11 -30 3 -58 8 -61
10 -6 3 -4 93 2 98 2 1 40 14 84 28 88 28 252 105 275 128 3 3 28 20 55 39 74
51 204 186 261 271 81 122 143 263 184 420 12 44 14 54 26 118 5 24 11 32 28
32 35 0 123 46 162 85 57 58 79 116 79 215 0 74 -4 93 -30 145 l-29 60 -1 194
0 193 42 29 c23 16 48 36 56 44 8 8 41 24 74 36 135 51 186 104 228 239 23 75
25 91 29 195 8 245 -87 425 -336 638 -154 132 -452 285 -723 370 -59 18 -285
73 -335 81 -19 3 -44 7 -55 10 -25 4 -113 18 -140 21 -11 1 -83 6 -160 10 -77
4 -143 9 -146 11 -3 2 -8 2 -10 0z"/>
</g>
</svg>
